<svg width="853" height="6361" viewBox="0 0 853 6361" fill="none" xmlns="http://www.w3.org/2000/svg">
<line y1="-0.5" x2="1035.89" y2="-0.5" transform="matrix(0.823444 -0.567398 0.720644 0.693306 0 3138.4)" stroke="white"/>
<line y1="-0.5" x2="1035.89" y2="-0.5" transform="matrix(0.823444 -0.567398 0.720644 0.693306 0 6360.11)" stroke="white"/>
<line y1="-0.5" x2="1035.89" y2="-0.5" transform="matrix(0.823444 -0.567398 0.720644 0.693306 0 3023.35)" stroke="white"/>
<line y1="-0.5" x2="1035.89" y2="-0.5" transform="matrix(0.823444 -0.567398 0.720644 0.693306 0 6245.05)" stroke="white"/>
<line y1="-0.5" x2="1035.89" y2="-0.5" transform="matrix(0.823444 -0.567398 0.720644 0.693306 0 2908.29)" stroke="white"/>
<line y1="-0.5" x2="1035.89" y2="-0.5" transform="matrix(0.823444 -0.567398 0.720644 0.693306 0 6129.99)" stroke="white"/>
<line y1="-0.5" x2="1035.89" y2="-0.5" transform="matrix(0.823444 -0.567398 0.720644 0.693306 0 2793.23)" stroke="white"/>
<line y1="-0.5" x2="1035.89" y2="-0.5" transform="matrix(0.823444 -0.567398 0.720644 0.693306 0 6014.93)" stroke="white"/>
<line y1="-0.5" x2="1035.89" y2="-0.5" transform="matrix(0.823444 -0.567398 0.720644 0.693306 0 2678.17)" stroke="white"/>
<line y1="-0.5" x2="1035.89" y2="-0.5" transform="matrix(0.823444 -0.567398 0.720644 0.693306 0 5899.88)" stroke="white"/>
<line y1="-0.5" x2="1035.89" y2="-0.5" transform="matrix(0.823444 -0.567398 0.720644 0.693306 0 2563.11)" stroke="white"/>
<line y1="-0.5" x2="1035.89" y2="-0.5" transform="matrix(0.823444 -0.567398 0.720644 0.693306 0 5784.82)" stroke="white"/>
<line y1="-0.5" x2="1035.89" y2="-0.5" transform="matrix(0.823444 -0.567398 0.720644 0.693306 0 2448.06)" stroke="white"/>
<line y1="-0.5" x2="1035.89" y2="-0.5" transform="matrix(0.823444 -0.567398 0.720644 0.693306 0 5669.76)" stroke="white"/>
<line y1="-0.5" x2="1035.89" y2="-0.5" transform="matrix(0.823444 -0.567398 0.720644 0.693306 0 2333)" stroke="white"/>
<line y1="-0.5" x2="1035.89" y2="-0.5" transform="matrix(0.823444 -0.567398 0.720644 0.693306 0 5554.7)" stroke="white"/>
<line y1="-0.5" x2="1035.89" y2="-0.5" transform="matrix(0.823444 -0.567398 0.720644 0.693306 0 2217.94)" stroke="white"/>
<line y1="-0.5" x2="1035.89" y2="-0.5" transform="matrix(0.823444 -0.567398 0.720644 0.693306 0 5439.64)" stroke="white"/>
<line y1="-0.5" x2="1035.89" y2="-0.5" transform="matrix(0.823444 -0.567398 0.720644 0.693306 0 2102.89)" stroke="white"/>
<line y1="-0.5" x2="1035.89" y2="-0.5" transform="matrix(0.823444 -0.567398 0.720644 0.693306 0 5324.59)" stroke="white"/>
<line y1="-0.5" x2="1035.89" y2="-0.5" transform="matrix(0.823444 -0.567398 0.720644 0.693306 0 1987.83)" stroke="white"/>
<line y1="-0.5" x2="1035.89" y2="-0.5" transform="matrix(0.823444 -0.567398 0.720644 0.693306 0 5209.53)" stroke="white"/>
<line y1="-0.5" x2="1035.89" y2="-0.5" transform="matrix(0.823444 -0.567398 0.720644 0.693306 0 1872.77)" stroke="white"/>
<line y1="-0.5" x2="1035.89" y2="-0.5" transform="matrix(0.823444 -0.567398 0.720644 0.693306 0 5094.47)" stroke="white"/>
<line y1="-0.5" x2="1035.89" y2="-0.5" transform="matrix(0.823444 -0.567398 0.720644 0.693306 0 1757.71)" stroke="white"/>
<line y1="-0.5" x2="1035.89" y2="-0.5" transform="matrix(0.823444 -0.567398 0.720644 0.693306 0 4979.42)" stroke="white"/>
<line y1="-0.5" x2="1035.89" y2="-0.5" transform="matrix(0.823444 -0.567398 0.720644 0.693306 0 1642.66)" stroke="white"/>
<line y1="-0.5" x2="1035.89" y2="-0.5" transform="matrix(0.823444 -0.567398 0.720644 0.693306 0 4864.36)" stroke="white"/>
<line y1="-0.5" x2="1035.89" y2="-0.5" transform="matrix(0.823444 -0.567398 0.720644 0.693306 0 1527.6)" stroke="white"/>
<line y1="-0.5" x2="1035.89" y2="-0.5" transform="matrix(0.823444 -0.567398 0.720644 0.693306 0 4749.3)" stroke="white"/>
<line y1="-0.5" x2="1035.89" y2="-0.5" transform="matrix(0.823444 -0.567398 0.720644 0.693306 0 1412.55)" stroke="white"/>
<line y1="-0.5" x2="1035.89" y2="-0.5" transform="matrix(0.823444 -0.567398 0.720644 0.693306 0 4634.25)" stroke="white"/>
<line y1="-0.5" x2="1035.89" y2="-0.5" transform="matrix(0.823444 -0.567398 0.720644 0.693306 0 1297.5)" stroke="white"/>
<line y1="-0.5" x2="1035.89" y2="-0.5" transform="matrix(0.823444 -0.567398 0.720644 0.693306 0 4519.19)" stroke="white"/>
<line y1="-0.5" x2="1035.89" y2="-0.5" transform="matrix(0.823444 -0.567398 0.720644 0.693306 0 1174.41)" stroke="white"/>
<line y1="-0.5" x2="1035.89" y2="-0.5" transform="matrix(0.823444 -0.567398 0.720644 0.693306 0 4404.13)" stroke="white"/>
<line y1="-0.5" x2="1035.89" y2="-0.5" transform="matrix(0.823444 -0.567398 0.720644 0.693306 0 1059.35)" stroke="white"/>
<line y1="-0.5" x2="1035.89" y2="-0.5" transform="matrix(0.823444 -0.567398 0.720644 0.693306 0 4289.07)" stroke="white"/>
<line y1="-0.5" x2="1035.89" y2="-0.5" transform="matrix(0.823444 -0.567398 0.720644 0.693306 0 944.297)" stroke="white"/>
<line y1="-0.5" x2="1035.89" y2="-0.5" transform="matrix(0.823444 -0.567398 0.720644 0.693306 0 4174.02)" stroke="white"/>
<line y1="-0.5" x2="1035.89" y2="-0.5" transform="matrix(0.823444 -0.567398 0.720644 0.693306 0 829.238)" stroke="white"/>
<line y1="-0.5" x2="1035.89" y2="-0.5" transform="matrix(0.823444 -0.567398 0.720644 0.693306 0 4058.96)" stroke="white"/>
<line y1="-0.5" x2="1035.89" y2="-0.5" transform="matrix(0.823444 -0.567398 0.720644 0.693306 0 714.18)" stroke="white"/>
<line y1="-0.5" x2="1035.89" y2="-0.5" transform="matrix(0.823444 -0.567398 0.720644 0.693306 0 3943.9)" stroke="white"/>
<line y1="-0.5" x2="1035.89" y2="-0.5" transform="matrix(0.823444 -0.567398 0.720644 0.693306 0 599.125)" stroke="white"/>
<line y1="-0.5" x2="1035.89" y2="-0.5" transform="matrix(0.823444 -0.567398 0.720644 0.693306 0 3828.84)" stroke="white"/>
<line y1="-0.5" x2="1035.89" y2="-0.5" transform="matrix(0.823444 -0.567398 0.720644 0.693306 0 484.066)" stroke="white"/>
<line y1="-0.5" x2="1035.89" y2="-0.5" transform="matrix(0.823444 -0.567398 0.720644 0.693306 0 3713.79)" stroke="white"/>
<line y1="-0.5" x2="1035.89" y2="-0.5" transform="matrix(0.823444 -0.567398 0.720644 0.693306 0 369.012)" stroke="white"/>
<line y1="-0.5" x2="1035.89" y2="-0.5" transform="matrix(0.823444 -0.567398 0.720644 0.693306 0 3598.73)" stroke="white"/>
<line y1="-0.5" x2="1035.89" y2="-0.5" transform="matrix(0.823444 -0.567398 0.720644 0.693306 0 253.953)" stroke="white"/>
<line y1="-0.5" x2="1035.89" y2="-0.5" transform="matrix(0.823444 -0.567398 0.720644 0.693306 0 3483.57)" stroke="white"/>
<line y1="-0.5" x2="1035.89" y2="-0.5" transform="matrix(0.823444 -0.567398 0.720644 0.693306 0 138.895)" stroke="white"/>
<line y1="-0.5" x2="1035.89" y2="-0.5" transform="matrix(0.823444 -0.567398 0.720644 0.693306 0 3368.51)" stroke="white"/>
<line y1="-0.5" x2="1035.89" y2="-0.5" transform="matrix(0.823444 -0.567398 0.720644 0.693306 0 3253.45)" stroke="white"/>
</svg>
