<svg width="853" height="7351" viewBox="0 0 853 7351" fill="none" xmlns="http://www.w3.org/2000/svg">
<g clip-path="url(#clip0_2523_13497)">
<line y1="-0.5" x2="1035.89" y2="-0.5" transform="matrix(0.823444 -0.567398 0.720644 0.693306 0 3311.38)" stroke="#1E1E1E"/>
<line y1="-0.5" x2="1035.89" y2="-0.5" transform="matrix(0.823444 -0.567398 0.720644 0.693306 0 6533.46)" stroke="#1E1E1E"/>
<line y1="-0.5" x2="1035.89" y2="-0.5" transform="matrix(0.823444 -0.567398 0.720644 0.693306 0 7811.34)" stroke="#1E1E1E"/>
<line y1="-0.5" x2="1035.89" y2="-0.5" transform="matrix(0.823444 -0.567398 0.720644 0.693306 0 3196.32)" stroke="#1E1E1E"/>
<line y1="-0.5" x2="1035.89" y2="-0.5" transform="matrix(0.823444 -0.567398 0.720644 0.693306 0 6418.4)" stroke="#1E1E1E"/>
<line y1="-0.5" x2="1035.89" y2="-0.5" transform="matrix(0.823444 -0.567398 0.720644 0.693306 0 7696.54)" stroke="#1E1E1E"/>
<line y1="-0.5" x2="1035.89" y2="-0.5" transform="matrix(0.823444 -0.567398 0.720644 0.693306 0 3081.26)" stroke="#1E1E1E"/>
<line y1="-0.5" x2="1035.89" y2="-0.5" transform="matrix(0.823444 -0.567398 0.720644 0.693306 0 6303.35)" stroke="#1E1E1E"/>
<line y1="-0.5" x2="1035.89" y2="-0.5" transform="matrix(0.823444 -0.567398 0.720644 0.693306 0 7581.48)" stroke="#1E1E1E"/>
<line y1="-0.5" x2="1035.89" y2="-0.5" transform="matrix(0.823444 -0.567398 0.720644 0.693306 0 2966.2)" stroke="#1E1E1E"/>
<line y1="-0.5" x2="1035.89" y2="-0.5" transform="matrix(0.823444 -0.567398 0.720644 0.693306 0 6188.29)" stroke="#1E1E1E"/>
<line y1="-0.5" x2="1035.89" y2="-0.5" transform="matrix(0.823444 -0.567398 0.720644 0.693306 0 7466.42)" stroke="#1E1E1E"/>
<line y1="-0.5" x2="1035.89" y2="-0.5" transform="matrix(0.823444 -0.567398 0.720644 0.693306 0 2851.14)" stroke="#1E1E1E"/>
<line y1="-0.5" x2="1035.89" y2="-0.5" transform="matrix(0.823444 -0.567398 0.720644 0.693306 0 6073.23)" stroke="#1E1E1E"/>
<line y1="-0.5" x2="1035.89" y2="-0.5" transform="matrix(0.823444 -0.567398 0.720644 0.693306 0 7351.37)" stroke="#1E1E1E"/>
<line y1="-0.5" x2="1035.89" y2="-0.5" transform="matrix(0.823444 -0.567398 0.720644 0.693306 0 2736.09)" stroke="#1E1E1E"/>
<line y1="-0.5" x2="1035.89" y2="-0.5" transform="matrix(0.823444 -0.567398 0.720644 0.693306 0 5958.17)" stroke="#1E1E1E"/>
<line y1="-0.5" x2="1035.89" y2="-0.5" transform="matrix(0.823444 -0.567398 0.720644 0.693306 0 7236.31)" stroke="#1E1E1E"/>
<line y1="-0.5" x2="1035.89" y2="-0.5" transform="matrix(0.823444 -0.567398 0.720644 0.693306 0 2621.04)" stroke="#1E1E1E"/>
<line y1="-0.5" x2="1035.89" y2="-0.5" transform="matrix(0.823444 -0.567398 0.720644 0.693306 0 5843.11)" stroke="#1E1E1E"/>
<line y1="-0.5" x2="1035.89" y2="-0.5" transform="matrix(0.823444 -0.567398 0.720644 0.693306 0 7121.25)" stroke="#1E1E1E"/>
<line y1="-0.5" x2="1035.89" y2="-0.5" transform="matrix(0.823444 -0.567398 0.720644 0.693306 0 2505.98)" stroke="#1E1E1E"/>
<line y1="-0.5" x2="1035.89" y2="-0.5" transform="matrix(0.823444 -0.567398 0.720644 0.693306 0 5728.06)" stroke="#1E1E1E"/>
<line y1="-0.5" x2="1035.89" y2="-0.5" transform="matrix(0.823444 -0.567398 0.720644 0.693306 0 7006.2)" stroke="#1E1E1E"/>
<line y1="-0.5" x2="1035.89" y2="-0.5" transform="matrix(0.823444 -0.567398 0.720644 0.693306 0 2390.92)" stroke="#1E1E1E"/>
<line y1="-0.5" x2="1035.89" y2="-0.5" transform="matrix(0.823444 -0.567398 0.720644 0.693306 0 5613)" stroke="#1E1E1E"/>
<line y1="-0.5" x2="1035.89" y2="-0.5" transform="matrix(0.823444 -0.567398 0.720644 0.693306 0 6891.14)" stroke="#1E1E1E"/>
<line y1="-0.5" x2="1035.89" y2="-0.5" transform="matrix(0.823444 -0.567398 0.720644 0.693306 0 2275.86)" stroke="#1E1E1E"/>
<line y1="-0.5" x2="1035.89" y2="-0.5" transform="matrix(0.823444 -0.567398 0.720644 0.693306 0 5497.95)" stroke="#1E1E1E"/>
<line y1="-0.5" x2="1035.89" y2="-0.5" transform="matrix(0.823444 -0.567398 0.720644 0.693306 0 6776.08)" stroke="#1E1E1E"/>
<line y1="-0.5" x2="1035.89" y2="-0.5" transform="matrix(0.823444 -0.567398 0.720644 0.693306 0 2160.8)" stroke="#1E1E1E"/>
<line y1="-0.5" x2="1035.89" y2="-0.5" transform="matrix(0.823444 -0.567398 0.720644 0.693306 0 5382.89)" stroke="#1E1E1E"/>
<line y1="-0.5" x2="1035.89" y2="-0.5" transform="matrix(0.823444 -0.567398 0.720644 0.693306 0 6661.02)" stroke="#1E1E1E"/>
<line y1="-0.5" x2="1035.89" y2="-0.5" transform="matrix(0.823444 -0.567398 0.720644 0.693306 0 2045.75)" stroke="#1E1E1E"/>
<line y1="-0.5" x2="1035.89" y2="-0.5" transform="matrix(0.823444 -0.567398 0.720644 0.693306 0 5267.83)" stroke="#1E1E1E"/>
<line y1="-0.5" x2="1035.89" y2="-0.5" transform="matrix(0.823444 -0.567398 0.720644 0.693306 0 1930.69)" stroke="#1E1E1E"/>
<line y1="-0.5" x2="1035.89" y2="-0.5" transform="matrix(0.823444 -0.567398 0.720644 0.693306 0 5152.77)" stroke="#1E1E1E"/>
<line y1="-0.5" x2="1035.89" y2="-0.5" transform="matrix(0.823444 -0.567398 0.720644 0.693306 0 1815.64)" stroke="#1E1E1E"/>
<line y1="-0.5" x2="1035.89" y2="-0.5" transform="matrix(0.823444 -0.567398 0.720644 0.693306 0 5037.71)" stroke="#1E1E1E"/>
<line y1="-0.5" x2="1035.89" y2="-0.5" transform="matrix(0.823444 -0.567398 0.720644 0.693306 0 1700.58)" stroke="#1E1E1E"/>
<line y1="-0.5" x2="1035.89" y2="-0.5" transform="matrix(0.823444 -0.567398 0.720644 0.693306 0 4922.66)" stroke="#1E1E1E"/>
<line y1="-0.5" x2="1035.89" y2="-0.5" transform="matrix(0.823444 -0.567398 0.720644 0.693306 0 1585.57)" stroke="#1E1E1E"/>
<line y1="-0.5" x2="1035.89" y2="-0.5" transform="matrix(0.823444 -0.567398 0.720644 0.693306 0 4807.6)" stroke="#1E1E1E"/>
<line y1="-0.5" x2="1035.89" y2="-0.5" transform="matrix(0.823444 -0.567398 0.720644 0.693306 0 1470.52)" stroke="#1E1E1E"/>
<line y1="-0.5" x2="1035.89" y2="-0.5" transform="matrix(0.823444 -0.567398 0.720644 0.693306 0 4692.55)" stroke="#1E1E1E"/>
<line y1="-0.5" x2="1035.89" y2="-0.5" transform="matrix(0.823444 -0.567398 0.720644 0.693306 0 1347.43)" stroke="#1E1E1E"/>
<line y1="-0.5" x2="1035.89" y2="-0.5" transform="matrix(0.823444 -0.567398 0.720644 0.693306 0 4577.49)" stroke="#1E1E1E"/>
<line y1="-0.5" x2="1035.89" y2="-0.5" transform="matrix(0.823444 -0.567398 0.720644 0.693306 0 1232.37)" stroke="#1E1E1E"/>
<line y1="-0.5" x2="1035.89" y2="-0.5" transform="matrix(0.823444 -0.567398 0.720644 0.693306 0 4462.43)" stroke="#1E1E1E"/>
<line y1="-0.5" x2="1035.89" y2="-0.5" transform="matrix(0.823444 -0.567398 0.720644 0.693306 0 1117.31)" stroke="#1E1E1E"/>
<line y1="-0.5" x2="1035.89" y2="-0.5" transform="matrix(0.823444 -0.567398 0.720644 0.693306 0 4347.38)" stroke="#1E1E1E"/>
<line y1="-0.5" x2="1035.89" y2="-0.5" transform="matrix(0.823444 -0.567398 0.720644 0.693306 0 1002.25)" stroke="#1E1E1E"/>
<line y1="-0.5" x2="1035.89" y2="-0.5" transform="matrix(0.823444 -0.567398 0.720644 0.693306 0 4232.31)" stroke="#1E1E1E"/>
<line y1="-0.5" x2="1035.89" y2="-0.5" transform="matrix(0.823444 -0.567398 0.720644 0.693306 0 887.195)" stroke="#1E1E1E"/>
<line y1="-0.5" x2="1035.89" y2="-0.5" transform="matrix(0.823444 -0.567398 0.720644 0.693306 0 4117.26)" stroke="#1E1E1E"/>
<line y1="-0.5" x2="1035.89" y2="-0.5" transform="matrix(0.823444 -0.567398 0.720644 0.693306 0 772.141)" stroke="#1E1E1E"/>
<line y1="-0.5" x2="1035.89" y2="-0.5" transform="matrix(0.823444 -0.567398 0.720644 0.693306 0 4002.2)" stroke="#1E1E1E"/>
<line y1="-0.5" x2="1035.89" y2="-0.5" transform="matrix(0.823444 -0.567398 0.720644 0.693306 0 657.082)" stroke="#1E1E1E"/>
<line y1="-0.5" x2="1035.89" y2="-0.5" transform="matrix(0.823444 -0.567398 0.720644 0.693306 0 3887.14)" stroke="#1E1E1E"/>
<line y1="-0.5" x2="1035.89" y2="-0.5" transform="matrix(0.823444 -0.567398 0.720644 0.693306 0 542.008)" stroke="#1E1E1E"/>
<line y1="-0.5" x2="1035.89" y2="-0.5" transform="matrix(0.823444 -0.567398 0.720644 0.693306 0 3772.09)" stroke="#1E1E1E"/>
<line y1="-0.5" x2="1035.89" y2="-0.5" transform="matrix(0.823444 -0.567398 0.720644 0.693306 0 426.949)" stroke="#1E1E1E"/>
<line y1="-0.5" x2="1035.89" y2="-0.5" transform="matrix(0.823444 -0.567398 0.720644 0.693306 0 3656.55)" stroke="#1E1E1E"/>
<line y1="-0.5" x2="1035.89" y2="-0.5" transform="matrix(0.823444 -0.567398 0.720644 0.693306 0 311.891)" stroke="#1E1E1E"/>
<line y1="-0.5" x2="1035.89" y2="-0.5" transform="matrix(0.823444 -0.567398 0.720644 0.693306 0 3541.49)" stroke="#1E1E1E"/>
<line y1="-0.5" x2="1035.89" y2="-0.5" transform="matrix(0.823444 -0.567398 0.720644 0.693306 0 148.766)" stroke="#1E1E1E"/>
<line y1="-0.5" x2="1035.89" y2="-0.5" transform="matrix(0.823444 -0.567398 0.720644 0.693306 0 3426.43)" stroke="#1E1E1E"/>
</g>
<defs>
<clipPath id="clip0_2523_13497">
<rect width="853" height="7351" fill="white"/>
</clipPath>
</defs>
</svg>
